<svg xmlns:rdf="http://www.w3.org/1999/02/22-rdf-syntax-ns#" xmlns="http://www.w3.org/2000/svg" height="250" width="250" version="1.1" xmlns:cc="http://creativecommons.org/ns#" xmlns:dc="http://purl.org/dc/elements/1.1/" viewBox="0 0 250 250">
 <g fill-rule="evenodd">
  <path fill="#353535" d="m120.1 112.73c0.33401 0.78714 0.90801 0.70552 0.85769 1.5721-0.0546 0.94004-0.93931 0.66402-0.85942 1.5616 0.098 1.1015 0.95174 0.52228 1.6822 0.74941 1.4217 0.44092-0.28159 1.9378 1.8537 2.0348 0.40182-0.43638 0.66453-1.4307 1.6388-1.1415 1.0442 0.31013 0.44457 1.0474 1.8556 0.0695 0.0284-0.78816-0.55548-1.5322 0.10727-2.0951 0.82912-0.70452 1.3536 0.21606 1.2597-1.5778-0.34006-0.18789-1.1111-0.29089-1.3703-0.80675-0.31831-0.63347 0.0952-1.14 0.22461-1.7615 1.6355 0.64125 0.74891 0.13758 1.9785-0.31203 0.42999 0.14451 0.68164 0.32271 0.88916 0.61649l-0.20323 1.3699c1.0442 0.82172 0.59787 0.29692 1.8362 0.25164 1.3782 1.3607-0.0937 1.2628 0.0101 2.2401 0.15179 1.4303 1.653-0.38396 1.7058 1.9804l-1.0612 0.70049-0.005 0.82273c0.47878 0.34836 1.0674 0.42709 1.0566 1.1009-0.0157 1.0302-0.48908 0.75181-1.1953 0.96789-0.79494 0.24347-0.48582 0.97644-0.17179 1.4056 0.45488 0.62126 0.13331 0.97431-0.31655 1.4077l-1.3254-0.18538c-0.77004 0.70112-0.48669 0.47978-0.33012 1.472 0.0841 0.53398-0.46493 1.0131-0.9622 0.93363-0.57322-0.0923-0.62239-0.73684-1.2816-0.55259-0.72401 0.20247-0.54895 0.77971-0.70653 1.483-0.31768 0.13733-0.72904 0.24775-1.1921 0.20109-0.21066-0.31654-0.43061-0.70087-0.6434-1.0228l-0.85243-0.0331-0.65521 1.0926c-1.725-0.0378-0.94162-0.53474-1.482-1.4715-1.41-1.1023-0.84798 1.238-2.6883-0.20324 0.0243-1.3339 0.5604-0.825-0.20385-1.8702l-1.5041 0.19782c-0.22737-0.42419-0.64944-0.8006-0.33402-1.3532 0.33227-0.5814 0.74728-0.45199 0.23706-1.3624-0.41275-0.26586-0.81066-0.16965-1.3208-0.38357-0.11156-0.33755-0.20033-0.77255-0.15972-1.2182l0.98963-0.5614c0.19506-2.1922-1.3893-0.22034-0.86412-2.7129 1.0755-0.24674 1.2858-0.15153 1.4958-0.67949 0.3002-0.75507-0.53787-1.0071-0.5487-1.473 0.44066-1.4164 0.84213-0.69018 1.9744-0.75142l0.49085-0.56832c-0.10727-0.55536-0.27555-0.67936-0.22134-1.3239 1.9392-1.2735 0.72074 0.41237 2.5567-0.0196-0.9412 1.3093-1.349-0.81607-2.242 1.2093zm21.888-4.4837c0.25555-1.2955-0.22209-2.4166-0.88973-3.1656-0.70088-0.7864-1.4517-1.0257-2.7758-1.3184-7.3373-1.6209-15.556-1.7743-22.919-0.68867-3.1777 0.46833-7.9924 0.77319-7.4149 5.0494 0.17531 1.2983 0.86058 1.9046 1.5978 2.5322 1.0552 0.89871 0.81555 1.7482 0.81555 3.4076l-0.00082 16.605c-0.0101 2.9539 1.1735 4.1506 4.1395 4.1463l20.725-0.00082c3.0027 0.005 4.3344-0.98362 4.3248-4.023-0.009-2.7468-0.00063-5.4944-0.00063-8.241 0-2.786 0.0257-5.5733 0.0257-8.362 0-1.4848-0.23844-2.6476 0.69408-3.4394 0.81066-0.68805 1.4031-1.1066 1.6777-2.4983"/>
  <g transform="matrix(.82352 0 0 .82352 42.652 35.427)">
   <path fill="#2871a4" d="m146.22 143.18-0.0302-84.25c0.777-0.23595 3.86-0.14676 4.7837-0.05705-0.487-0.24373-8.7958-0.19563-9.7486-0.03812-1.3211 0.21868-2.3562 1.2351-2.635 2.3545-0.33245 1.3334-0.12736 40.227-0.12736 44.912 0 2.9285 0.33077 18.08-0.29519 19.563-1.1458 2.7163-4.6609 2.06-7.9391 2.06l-15.012-0.001c-5.4852-0.0138-4.2077 4.3193-4.222 10.752-0.01 4.038 1.2912 4.7189 5.2526 4.7176 9.6174-0.004 20.694 0.2364 29.973-0.0138"/>
   <path fill="#353535" d="m146.22 143.18c6.076 0.23289 12.613 0.0138 18.74 0.0138h9.4187c7.8807 0 7.15-0.51388 6.9954-11.639-0.0563-4.0419-3.0428-3.8298-5.5236-3.8298h-9.4187c-10.95 0-12.502 1.4064-12.502-6.1725v-46.941c0-1.9203 0.27747-12.455-0.30512-13.839-0.40271-0.95706-1.34-1.8015-2.6516-1.899-0.92375-0.08967-4.0067-0.17882-4.7837 0.05705l0.0302 84.25z"/>
  </g>
  <g transform="matrix(.82352 0 0 .82352 42.602 36.358)">
   <path fill="#2871a4" d="m53.811 142.09c4.0652 0.001 7.7499 0.70171 7.7759-3.9774 0.10659-19.365-0.0031-39.026-0.0031-58.424 0-1.8466-0.2732-3.9631 0.68873-5.2539 1.0316-1.3843 2.5311-1.2935 4.6659-1.293l17.514 0.000452c5.2886 0.01368 4.5605-2.986 4.5605-7.1383 0-3.368 0.92468-8.0522-3.2474-8.3266-1.8152-0.11948-4.0184-0.01222-5.8765-0.01222-8.6948 0-57.586-0.23334-58.276 0.10079l32.237 0.0024-0.03894 84.321z"/>
   <path fill="#353535" d="m53.811 142.09 0.03895-84.321-32.237-0.0037c-2.4584 0.21135-2.9697 2.1783-2.964 4.7055 0.01558 6.6491-1.3211 10.69 4.58 10.671l15.307-0.000916c2.402 0 5.3145-0.4056 6.6564 1.0693 1.3315 1.4636 0.88741 4.5404 0.88741 6.8019v53.563c0 2.3427-0.38606 5.211 1.0507 6.5652 1.4377 1.3544 4.4045 0.94193 6.6812 0.94971"/>
  </g>
 </g>
 <circle stroke-linejoin="round" stroke-linecap="round" stroke="#ed2790" cy="125" cx="125" r="100" fill="none"/>
 <text font-size="18.781px" font-family="Outage" style="word-spacing:0px;letter-spacing:0px" line-height="125%" xml:space="preserve" y="182.01927" x="54.248745" font-weight="bold" fill="#353535"><tspan y="182.01927" x="54.248745" fill="#353535">TOASTERTECH</tspan></text>
 <text style="word-spacing:0px;letter-spacing:0px" font-family="Outage" font-size="27.074px" line-height="125%" xml:space="preserve" y="65.664169" x="87.834114" font-weight="bold" fill="#353535"><tspan y="65.664169" x="87.834114" fill="#353535">5332</tspan></text>
</svg>
