<svg xmlns:rdf="http://www.w3.org/1999/02/22-rdf-syntax-ns#" xmlns="http://www.w3.org/2000/svg" height="200" width="200" version="1.1" xmlns:cc="http://creativecommons.org/ns#" xmlns:dc="http://purl.org/dc/elements/1.1/" viewBox="0 0 200 200">
 <rect height="200" width="200" y="0" x="0" fill="#0"/>
 <g fill-rule="evenodd" transform="matrix(.82352 0 0 .82352 -70.852 -680.86)">
  <g stroke-linejoin="round" stroke="#fff" stroke-miterlimit="2.6131" stroke-width="6.8721" fill="#fff">
   <path d="m206.19 920.74c-3.5338 0.0565-7.032 0.33866-10.384 0.83276-3.8592 0.56931-9.707 0.94029-9.0053 6.1323 0.21288 1.5771 1.045 2.3111 1.9399 3.0733 1.2817 1.091 0.99025 2.1221 0.99025 4.1375v20.16c-0.0122 3.5874 1.426 5.04 5.0275 5.0348h25.165c3.6463 0.006 5.2641-1.1959 5.2518-4.8868-0.011-3.3354 0-6.6721 0-10.007 0-3.383 0.031-6.7675 0.031-10.153 0-1.8031-0.29067-3.2138 0.8423-4.1758 0.9844-0.83503 1.7045-1.3452 2.0378-3.0352 0.31045-1.5726-0.27046-2.935-1.0809-3.8441-0.85152-0.95537-1.761-1.2438-3.3692-1.5987-5.5683-1.2303-11.555-1.7645-17.445-1.6703zm6.5213 10.485c0.52197 0.17578 0.82909 0.39296 1.0809 0.74924l-0.24815 1.6631c1.2679 0.99813 0.72712 0.3604 2.2311 0.30542 1.6736 1.6528-0.11411 1.5351 0.0122 2.7226 0.18448 1.7362 2.0071-0.46846 2.0712 2.4028l-1.2885 0.85184-0.007 0.99979c0.58139 0.4224 1.2965 0.51845 1.2838 1.3363-0.0194 1.251-0.59329 0.91162-1.4508 1.174-0.96529 0.29565-0.59145 1.1853-0.20998 1.7061 0.55236 0.75456 0.16179 1.184-0.38416 1.7109l-1.6126-0.21991c-0.9346 0.85106-0.59084 0.58262-0.40087 1.7872 0.10216 0.64857-0.56584 1.2304-1.1692 1.1334-0.69652-0.11166-0.75494-0.89469-1.5557-0.67051-0.87871 0.24602-0.66766 0.94504-0.85901 1.7992-0.38575 0.16615-0.88325 0.30213-1.446 0.24577-0.25549-0.38437-0.52457-0.85269-0.78266-1.2432l-1.0332-0.0406-0.79696 1.3266c-2.0947-0.0453-1.1425-0.64997-1.7992-1.7872-1.7121-1.339-1.0293 1.5045-3.2643-0.24577 0.0299-1.6198 0.68002-1.0029-0.24815-2.2716l-1.8278 0.24099c-0.2761-0.51556-0.78687-0.97317-0.40326-1.644 0.40347-0.7066 0.9062-0.54842 0.28633-1.6536-0.5009-0.32284-0.98362-0.20554-1.6035-0.4653-0.13545-0.41034-0.24306-0.93834-0.19327-1.4794l1.2026-0.68245c0.23625-2.6613-1.6881-0.26848-1.0499-3.2953 1.306-0.29946 1.5608-0.18213 1.8158-0.82322 0.36437-0.91642-0.65275-1.2243-0.66573-1.7895 0.5351-1.7199 1.0213-0.83698 2.3956-0.9115l0.59653-0.69198c-0.13026-0.67438-0.33546-0.82322-0.26963-1.6059 2.3553-1.5462 0.87776 0.50086 3.1068-0.0239-1.1424 1.5905-1.6378-0.99212-2.7226 1.4675 0.40591 0.95537 1.1017 0.85656 1.0404 1.9089-0.0663 1.142-1.1397 0.80662-1.0427 1.8969 0.11865 1.3378 1.1551 0.63378 2.0426 0.90912 1.726 0.53587-0.34324 2.3538 2.2501 2.472 0.48746-0.52991 0.80697-1.7379 1.99-1.3864 1.2675 0.37612 0.53968 1.2711 2.2526 0.0835 0.0351-0.95706-0.67356-1.8597 0.13124-2.5436 1.0068-0.85535 1.6434 0.26268 1.5296-1.9161-0.41294-0.2277-1.3484-0.35235-1.6631-0.97831-0.38698-0.76967 0.11442-1.3858 0.27202-2.1404 1.986 0.77837 0.90976 0.16686 2.4028-0.3794zm-3.1258 8.7882c-0.92858 0.0338-1.9134 0.16623-2.9087 0.40324-3.9814 0.94759-6.6225 3.2341-5.9009 5.1063 0.72202 1.8728 4.535 2.6207 8.5161 1.6726 3.9813-0.94757 6.6225-3.2342 5.9009-5.1063-0.54163-1.4046-2.8216-2.1774-5.6074-2.0759z"/>
   <g transform="translate(107.46,840.41)">
    <path d="m146.17 142.19-0.0307-84.25c0.77747-0.23624 3.8604-0.14706 4.7842-0.05705-0.48699-0.24373-8.7958-0.19562-9.749-0.038-1.3207 0.21807-2.3557 1.2345-2.6346 2.3541-0.33246 1.3336-0.12767 40.228-0.12767 44.912 0 2.9284 0.33078 18.08-0.2952 19.564-1.1453 2.7163-4.6605 2.0597-7.9387 2.0597l-15.011-0.001c-5.4852-0.0138-4.2077 4.3198-4.2221 10.752-0.009 4.0383 1.2913 4.7188 5.2527 4.7176 9.617-0.004 20.694 0.2364 29.973-0.0122z"/>
    <path d="m146.17 142.2c6.0755 0.2329 12.613 0.0138 18.74 0.0138h9.4187c7.8802 0 7.15-0.51387 6.995-11.639-0.0563-4.0419-3.0423-3.8298-5.5236-3.8298-3.1393 0.00046-6.279 0-9.4187 0-10.95 0-12.502 1.4064-12.502-6.172v-46.941c0-1.9204 0.27794-12.454-0.30481-13.839-0.403-0.95675-1.3402-1.8018-2.6513-1.8986-0.92376-0.08992-4.0067-0.17913-4.7842 0.05718l0.0307 84.25z"/>
   </g>
   <g transform="translate(107.46,840.43)">
    <path d="m53.767 142.2c4.0657 0.001 7.7503 0.70203 7.7759-3.9769 0.10705-19.366-0.0031-39.026-0.0031-58.425 0-1.8467-0.27305-3.9631 0.68873-5.2534 1.0316-1.3844 2.5311-1.2939 4.6662-1.2935l17.514 0.000305c5.2886 0.01368 4.5605-2.986 4.5605-7.1383 0-3.3675 0.92468-8.0521-3.2475-8.3265-1.8154-0.1196-4.0189-0.011-5.8764-0.011-8.695 0-57.586-0.23381-58.276 0.10055l32.237 0.0024-0.0394 84.321z"/>
    <path d="m53.767 142.2 0.0394-84.321-32.237-0.0037c-2.4584 0.21166-2.9701 2.1785-2.964 4.7059 0.01558 6.6491-1.3216 10.69 4.5799 10.671l15.307-0.000916c2.4017 0 5.3145-0.4056 6.6566 1.0693 1.331 1.4631 0.88741 4.5401 0.88741 6.8019v53.563c0 2.3427-0.3862 5.211 1.0507 6.5652 1.4372 1.3546 4.4045 0.94193 6.6807 0.94942z"/>
   </g>
  </g>
  <path d="m201.51 933.3c0.4056 0.95583 1.1026 0.85672 1.0415 1.909-0.0663 1.1415-1.1406 0.80632-1.0436 1.8963 0.11897 1.3376 1.1557 0.63421 2.0427 0.91001 1.7264 0.53541-0.34193 2.3531 2.251 2.4709 0.48792-0.5299 0.80693-1.7373 1.99-1.3861 1.268 0.37659 0.53984 1.2718 2.2533 0.0844 0.0345-0.95706-0.67452-1.8605 0.13026-2.5441 1.0068-0.8555 1.6437 0.26236 1.5297-1.9159-0.41293-0.22815-1.3492-0.35322-1.664-0.97964-0.38652-0.76922 0.11559-1.3843 0.27274-2.139 1.986 0.77868 0.90941 0.16707 2.4025-0.37889 0.52213 0.17547 0.82771 0.39186 1.0797 0.7486l-0.24678 1.6635c1.268 0.99782 0.72599 0.36055 2.2297 0.30557 1.6736 1.6523-0.11374 1.5334 0.0122 2.7202 0.18432 1.7368 2.0072-0.46624 2.0713 2.4048l-1.2886 0.85061-0.006 0.99904c0.58139 0.42301 1.2961 0.51861 1.283 1.3368-0.0191 1.251-0.59389 0.91292-1.4515 1.1753-0.9653 0.29565-0.58993 1.1857-0.20861 1.7068 0.55236 0.7544 0.16188 1.1831-0.38438 1.7094l-1.6095-0.2251c-0.93506 0.85137-0.59099 0.58259-0.40086 1.7874 0.10216 0.64841-0.56457 1.2302-1.1684 1.1337-0.69606-0.11203-0.75577-0.89474-1.5563-0.67101-0.87916 0.24586-0.66659 0.94681-0.85794 1.8008-0.38575 0.16676-0.88527 0.30084-1.4476 0.24418-0.2558-0.38437-0.52289-0.85106-0.78128-1.242l-1.0351-0.0402-0.79563 1.3268c-2.0947-0.0459-1.1434-0.64933-1.7996-1.7868-1.7121-1.3385-1.0297 1.5033-3.2644-0.24679 0.0295-1.6198 0.68049-1.0018-0.24754-2.271l-1.8264 0.24021c-0.2761-0.51509-0.78861-0.97216-0.4056-1.6432 0.40347-0.70599 0.90742-0.54885 0.28786-1.6544-0.5012-0.32283-0.98438-0.206-1.6038-0.46577-0.13546-0.40988-0.24326-0.93811-0.19394-1.4792l1.2017-0.6817c0.23686-2.662-1.687-0.26756-1.0493-3.2943 1.306-0.29962 1.5613-0.18401 1.8164-0.8251 0.36453-0.91689-0.65314-1.2229-0.66629-1.7887 0.5351-1.7199 1.0226-0.83809 2.3975-0.91245l0.59604-0.69011c-0.13026-0.67438-0.3346-0.82495-0.26877-1.6076 2.3548-1.5464 0.8752 0.50074 3.1046-0.0238-1.1429 1.5899-1.6381-0.99096-2.7224 1.4684zm26.579-5.4445c0.31031-1.5731-0.26969-2.9345-1.0804-3.844-0.85108-0.95492-1.7628-1.2455-3.3706-1.6009-8.9097-1.9683-18.89-2.1545-27.83-0.83625-3.8587 0.5687-9.7052 0.93888-9.0039 6.1315 0.21288 1.5765 1.045 2.3128 1.9402 3.0748 1.2813 1.0913 0.99033 2.1228 0.99033 4.1379l-0.001 20.163c-0.0122 3.5869 1.425 5.0401 5.0266 5.0349l25.166-0.001c3.6462 0.006 5.2633-1.1944 5.2516-4.8851-0.011-3.3354-0.00076-6.6719-0.00076-10.007 0-3.383 0.0312-6.7677 0.0312-10.154 0-1.803-0.28954-3.215 0.84282-4.1764 0.98438-0.8355 1.7038-1.3437 2.0372-3.0337" fill="#0"/>
  <g transform="translate(107.47,839.43)">
   <path d="m146.22 143.18-0.0302-84.25c0.777-0.23595 3.86-0.14676 4.7837-0.05705-0.487-0.24373-8.7958-0.19563-9.7486-0.03812-1.3211 0.21868-2.3562 1.2351-2.635 2.3545-0.33245 1.3334-0.12736 40.227-0.12736 44.912 0 2.9285 0.33077 18.08-0.29519 19.563-1.1458 2.7163-4.6609 2.06-7.9391 2.06l-15.012-0.001c-5.4852-0.0138-4.2077 4.3193-4.222 10.752-0.01 4.038 1.2912 4.7189 5.2526 4.7176 9.6174-0.004 20.694 0.2364 29.973-0.0138" fill="#2871a4"/>
   <path d="m146.22 143.18c6.076 0.23289 12.613 0.0138 18.74 0.0138h9.4187c7.8807 0 7.15-0.51388 6.9954-11.639-0.0563-4.0419-3.0428-3.8298-5.5236-3.8298h-9.4187c-10.95 0-12.502 1.4064-12.502-6.1725v-46.941c0-1.9203 0.27747-12.455-0.30512-13.839-0.40271-0.95706-1.34-1.8015-2.6516-1.899-0.92375-0.08967-4.0067-0.17882-4.7837 0.05705l0.0302 84.25z" fill="#0"/>
  </g>
  <g transform="translate(107.41,840.56)">
   <path d="m53.811 142.09c4.0652 0.001 7.7499 0.70171 7.7759-3.9774 0.10659-19.365-0.0031-39.026-0.0031-58.424 0-1.8466-0.2732-3.9631 0.68873-5.2539 1.0316-1.3843 2.5311-1.2935 4.6659-1.293l17.514 0.000452c5.2886 0.01368 4.5605-2.986 4.5605-7.1383 0-3.368 0.92468-8.0522-3.2474-8.3266-1.8152-0.11948-4.0184-0.01222-5.8765-0.01222-8.6948 0-57.586-0.23334-58.276 0.10079l32.237 0.0024-0.03894 84.321z" fill="#2871a4"/>
   <path d="m53.811 142.09 0.03895-84.321-32.237-0.0037c-2.4584 0.21135-2.9697 2.1783-2.964 4.7055 0.01558 6.6491-1.3211 10.69 4.58 10.671l15.307-0.000916c2.402 0 5.3145-0.4056 6.6564 1.0693 1.3315 1.4636 0.88741 4.5404 0.88741 6.8019v53.563c0 2.3427-0.38606 5.211 1.0507 6.5652 1.4377 1.3544 4.4045 0.94193 6.6812 0.94971" fill="#0"/>
  </g>
 </g>
 <circle stroke-linejoin="round" stroke-linecap="round" stroke="#ed2790" cy="100" cx="100" r="100" fill="none"/>
 <text font-size="18.781px" font-family="Outage" style="word-spacing:0px;letter-spacing:0px" line-height="125%" xml:space="preserve" y="157.01927" x="29.248745" font-weight="bold" fill="#ffffff"><tspan y="157.01927" x="29.248745">TOASTERTECH</tspan></text>
 <text style="word-spacing:0px;letter-spacing:0px" font-family="Outage" font-size="27.074px" line-height="125%" xml:space="preserve" y="40.664169" x="62.834114" font-weight="bold" fill="#ffffff"><tspan y="40.664169" x="62.834114">5332</tspan></text>
</svg>
