<svg xmlns:rdf="http://www.w3.org/1999/02/22-rdf-syntax-ns#" xmlns="http://www.w3.org/2000/svg" height="200" width="200" version="1.1" xmlns:cc="http://creativecommons.org/ns#" xmlns:dc="http://purl.org/dc/elements/1.1/" viewBox="0 0 200 200">
 <g transform="translate(0 -852.36)">
  <rect height="200" width="200" y="852.36" x="0" fill="#353535"/>
  <g fill="#fff">
   <path style="" d="m27.201 947.84q0 0.18244-0.13684 0.31928-0.11403 0.11403-0.29648 0.11403h-3.2385q-0.18245 0-0.31928 0.11403-0.11403 0.11403-0.11403 0.29648v11.243q0 0.18245-0.11403 0.31928-0.11403 0.11403-0.29648 0.11403h-3.17q-0.18245 0-0.31928-0.11403-0.11403-0.13683-0.11403-0.31928v-11.243q0-0.18245-0.11403-0.29648t-0.29648-0.11403h-3.2385q-0.18245 0-0.31928-0.11403-0.11403-0.13684-0.11403-0.31928v-3.0104q0-0.43331 0.43331-0.43331h3.2385 0.84382 3.17 0.84382 3.2385q0.18245 0 0.29648 0.13683 0.13684 0.11403 0.13684 0.29648v3.0104z"/>
   <path style="" d="m42.769 946.67q0.06842 0.15964 0.11403 0.3877 0.06842 0.22806 0.06842 0.41051v0.43331 8.1874 1.1859q0 0.18245-0.06842 0.41051-0.04561 0.22806-0.11403 0.3877l-2.0982 2.0982q-0.15964 0.0912-0.41051 0.13684-0.22806 0.0456-0.41051 0.0456h-0.47893-5.5191-1.2315q-0.18245 0-0.41051-0.0456t-0.3877-0.13684l-2.0982-2.0982q-0.09122-0.15964-0.13684-0.3877-0.04561-0.22806-0.04561-0.41051v-0.47893-8.1418-1.1859q0-0.18245 0.04561-0.41051t0.13684-0.3877l2.0982-2.0982q0.15964-0.0684 0.3877-0.11403 0.22806-0.0684 0.41051-0.0684h0.98066 4.7893 1.4596q0.18245 0 0.41051 0.0684 0.25087 0.0456 0.41051 0.11403l2.0982 2.0982zm-3.8542 1.5964h-5.3594v8.233h5.3594v-8.233z"/>
   <path style="" d="m59.718 946.65q0.06842 0.15965 0.11403 0.41051 0.06842 0.22806 0.06842 0.41051v0.25087 0.20525 11.996q0 0.18245-0.13684 0.29648-0.11403 0.11403-0.29648 0.11403h-3.17q-0.18245 0-0.29648-0.11403t-0.11403-0.29648v-4.1051q0-0.18244-0.13684-0.29647-0.11403-0.11403-0.29648-0.11403h-4.5156q-0.18245 0-0.31928 0.11403-0.11403 0.11403-0.11403 0.29647v4.1051q0 0.18245-0.11403 0.29648t-0.29648 0.11403h-3.17q-0.18245 0-0.31928-0.11403-0.11403-0.11403-0.11403-0.29648v-12.087-0.3649-0.0684q0.02281-0.18245 0.06842-0.3877t0.11403-0.3649l2.0982-2.0982q0.15964-0.0684 0.3877-0.11403 0.22806-0.0684 0.41051-0.0684h0.34209 1.2999 4.6524 0.68418 0.25087q0.18245 0 0.41051 0.0684 0.25087 0.0456 0.41051 0.11403l2.0982 2.0982zm-3.8314 1.3h-5.3822v4.0367h5.3822v-4.0367z"/>
   <path style="" d="m75.435 953.01q0.06842 0.18245 0.11403 0.41051 0.06842 0.22806 0.06842 0.41051v0.63857 1.6876 1.1175q0 0.18245-0.06842 0.41051-0.04561 0.22806-0.11403 0.3877l-2.0982 2.0982q-0.15964 0.0912-0.41051 0.13684-0.22806 0.0456-0.41051 0.0456h-0.50173-5.177-2.9876q-0.43332 0-0.43332-0.43331v-2.7595q0-0.18245 0.11403-0.29648 0.13684-0.13684 0.31928-0.13684h3.6262 1.9613 2.1666q0.18245 0 0.29648-0.11403 0.13684-0.11403 0.13684-0.29647v-1.8929q0-0.18245-0.13684-0.29648-0.11403-0.13684-0.29648-0.13684h-2.0525-2.7367-0.31928q-0.18245 0-0.41051-0.0456t-0.3877-0.11403l-2.0982-2.0982q-0.09122-0.18245-0.13684-0.41051-0.04561-0.22806-0.04561-0.41051v-0.43332-2.5999-0.41051q0-0.18245 0.04561-0.41051t0.13684-0.3877l2.0982-2.0982q0.15964-0.0684 0.3877-0.11403 0.22806-0.0684 0.41051-0.0684h0.43332 6.3401 1.414q0.18245 0 0.29648 0.13683 0.13684 0.11403 0.13684 0.29648v2.8051q0 0.18245-0.13684 0.31929-0.11403 0.11403-0.29648 0.11403h-1.5964-4.1963-1.4824q-0.18245 0-0.31928 0.11403-0.11403 0.11403-0.11403 0.29648v1.8473q0 0.18245 0.11403 0.31929 0.13684 0.11403 0.31928 0.11403h1.4596 3.1016 0.54734q0.18245 0 0.41051 0.0456 0.25087 0.0456 0.41051 0.11403l2.0982 2.0982z"/>
   <path style="" d="m90.363 947.84q0 0.18244-0.13684 0.31928-0.11403 0.11403-0.29648 0.11403h-3.2385q-0.18245 0-0.31928 0.11403-0.11403 0.11403-0.11403 0.29648v11.243q0 0.18245-0.11403 0.31928-0.11403 0.11403-0.29648 0.11403h-3.17q-0.18245 0-0.31928-0.11403-0.11403-0.13683-0.11403-0.31928v-11.243q0-0.18245-0.11403-0.29648t-0.29648-0.11403h-3.2385q-0.18245 0-0.31928-0.11403-0.11403-0.13684-0.11403-0.31928v-3.0104q0-0.43331 0.43332-0.43331h3.2385 0.84382 3.17 0.84382 3.2385q0.18245 0 0.29648 0.13683 0.13684 0.11403 0.13684 0.29648v3.0104z"/>
   <path style="" d="m97.165 948.11q-0.11403 0-0.11403 0.11403v2.4859q0 0.0912 0.11403 0.0912h1.9385 2.0982 2.463q0.18245 0 0.29648 0.13684 0.13684 0.11403 0.13684 0.29647v2.2806q0 0.43331-0.43332 0.43331h-2.3034-1.8245-2.3718q-0.11403 0-0.11403 0.11403v2.463q0 0.11403 0.11403 0.11403h1.8245 2.5771 3.2385q0.18244 0 0.29647 0.13684 0.13684 0.11403 0.13684 0.29647v2.8508q0 0.18245-0.13684 0.31928-0.11403 0.11403-0.29647 0.11403h-2.4402-5.5419-0.70699q-0.18245 0-0.41051-0.0456t-0.3877-0.13684l-2.0982-2.0982q-0.09122-0.15964-0.13684-0.3877-0.04561-0.22806-0.04561-0.41051v-0.70699-7.7084-1.3912q0-0.18245 0.04561-0.41051t0.13684-0.3877l2.0982-2.0982q0.15964-0.0684 0.3877-0.11403 0.22806-0.0684 0.41051-0.0684h0.54734 6.3173 1.8245q0.18244 0 0.29647 0.13683 0.13684 0.11403 0.13684 0.29648v2.8736q0 0.18245-0.13684 0.29648-0.11403 0.11403-0.29647 0.11403h-1.7561-3.6262-2.2578z"/>
   <path style="" d="m122.56 959.99q0.0912 0.15964 0.0228 0.27367-0.0684 0.0912-0.25086 0.0912h-3.6262q-0.18245 0-0.3649-0.0912-0.18244-0.11403-0.27367-0.27367l-2.5543-4.3332q-0.0456-0.0912-0.15964-0.0912h-2.5771q-0.11403 0-0.11403 0.11403v4.2419q0 0.43331-0.43332 0.43331h-3.1472q-0.43331 0-0.43331-0.43331v-7.4348-3.8998-3.763q0-0.18245 0.11403-0.29648 0.13683-0.13683 0.31928-0.13683h9.875q0.18245 0 0.41051 0.0684 0.25086 0.0456 0.4105 0.11403l2.0982 2.0982q0.0684 0.15964 0.11403 0.3877 0.0684 0.22806 0.0684 0.41051v3.0788 1.6648 0.22806q0 0.13684-0.0684 0.34209-0.0684 0.18245-0.15964 0.34209l-2.0982 2.1438 2.828 4.7208zm-4.5384-11.882h-5.5191v3.877h2.6227 2.4174 0.0684 0.41051v-0.29648-2.5771-1.0035z"/>
   <path style="" d="m137.31 947.84q0 0.18244-0.13684 0.31928-0.11403 0.11403-0.29648 0.11403h-3.2384q-0.18245 0-0.31928 0.11403-0.11403 0.11403-0.11403 0.29648v11.243q0 0.18245-0.11403 0.31928-0.11403 0.11403-0.29648 0.11403h-3.17q-0.18245 0-0.31928-0.11403-0.11403-0.13683-0.11403-0.31928v-11.243q0-0.18245-0.11403-0.29648t-0.29648-0.11403h-3.2385q-0.18245 0-0.31928-0.11403-0.11403-0.13684-0.11403-0.31928v-3.0104q0-0.43331 0.43331-0.43331h3.2385 0.84382 3.17 0.84382 3.2384q0.18245 0 0.29648 0.13683 0.13684 0.11403 0.13684 0.29648v3.0104z"/>
   <path style="" d="m144.11 948.11q-0.11403 0-0.11403 0.11403v2.4859q0 0.0912 0.11403 0.0912h1.9385 2.0982 2.463q0.18245 0 0.29648 0.13684 0.13683 0.11403 0.13683 0.29647v2.2806q0 0.43331-0.43331 0.43331h-2.3034-1.8245-2.3718q-0.11403 0-0.11403 0.11403v2.463q0 0.11403 0.11403 0.11403h1.8245 2.5771 3.2384q0.18245 0 0.29648 0.13684 0.13684 0.11403 0.13684 0.29647v2.8508q0 0.18245-0.13684 0.31928-0.11403 0.11403-0.29648 0.11403h-2.4402-5.5419-0.70698q-0.18245 0-0.41051-0.0456t-0.3877-0.13684l-2.0982-2.0982q-0.0912-0.15964-0.13683-0.3877-0.0456-0.22806-0.0456-0.41051v-0.70699-7.7084-1.3912q0-0.18245 0.0456-0.41051t0.13683-0.3877l2.0982-2.0982q0.15964-0.0684 0.3877-0.11403 0.22806-0.0684 0.41051-0.0684h0.54734 6.3173 1.8245q0.18245 0 0.29648 0.13683 0.13684 0.11403 0.13684 0.29648v2.8736q0 0.18245-0.13684 0.29648-0.11403 0.11403-0.29648 0.11403h-1.7561-3.6262-2.2578z"/>
   <path style="" d="m160.2 948.27q-0.18245 0-0.31929 0.11403-0.11403 0.11403-0.11403 0.29648v7.3892q0 0.18245 0.11403 0.31928 0.13684 0.11403 0.31929 0.11403h7.3207q0.18245 0 0.29648 0.11403 0.13683 0.11403 0.13683 0.29648v3.0104q0 0.18245-0.13683 0.31928-0.11403 0.11403-0.29648 0.11403h-7.0014-1.3912-0.29648q-0.18244 0-0.4105-0.0456t-0.38771-0.13684l-2.0982-2.0982q-0.0912-0.15964-0.13684-0.3877-0.0456-0.22806-0.0456-0.41051v-0.13684-2.4174-5.4278-1.2087-0.61576q0-0.18245 0.0456-0.41051t0.13684-0.3877l2.0982-2.0982q0.15965-0.0684 0.31929-0.11403 0.18245-0.0684 0.27367-0.0684h0.20525 0.29648 0.0912 0.0456 0.52454 7.7312q0.18245 0 0.29648 0.13683 0.13683 0.11403 0.13683 0.29648v3.0104q0 0.18244-0.13683 0.31928-0.11403 0.11403-0.29648 0.11403h-7.3207z"/>
   <path style="" d="m184.57 944.39q0.18245 0 0.29648 0.13683 0.13 0.11 0.13 0.29v15.098q0 0.18245-0.13683 0.31928-0.11403 0.11403-0.29648 0.11403h-3.17q-0.18245 0-0.31928-0.11403-0.11403-0.13683-0.11403-0.31928v-5.2682q0-0.18245-0.11403-0.29648t-0.29648-0.11403h-4.5156q-0.18245 0-0.31929 0.11403-0.11403 0.11403-0.11403 0.29648v5.2682q0 0.43331-0.43331 0.43331h-3.1472q-0.43332 0-0.43332-0.43331v-15.098q0-0.43331 0.43332-0.43331h3.1472q0.43331 0 0.43331 0.43331v5.1086q0 0.43331 0.43332 0.43331h4.5156q0.18245 0 0.29648-0.11403 0.11403-0.13683 0.11403-0.31928v-5.1086q0-0.18245 0.11403-0.29648 0.13683-0.13683 0.31928-0.13683h3.17z"/>
  </g>
 </g>
</svg>
