<svg xmlns:rdf="http://www.w3.org/1999/02/22-rdf-syntax-ns#" xmlns="http://www.w3.org/2000/svg" height="200" width="200" version="1.1" xmlns:cc="http://creativecommons.org/ns#" xmlns:dc="http://purl.org/dc/elements/1.1/" viewBox="0 0 200 200">
 <g transform="translate(0 -852.36)">
  <rect height="200" width="200" y="852.36" x="0" fill="#0"/>
  <g fill="#fff">
   <path style="" d="m27.201 947.84q0 0.18244-0.13684 0.31928-0.11403 0.11403-0.29648 0.11403h-3.2385q-0.18245 0-0.31928 0.11403-0.11403 0.11403-0.11403 0.29648v11.243q0 0.18245-0.11403 0.31928-0.11403 0.11403-0.29648 0.11403h-3.17q-0.18245 0-0.31928-0.11403-0.11403-0.13683-0.11403-0.31928v-11.243q0-0.18245-0.11403-0.29648t-0.29648-0.11403h-3.2385q-0.18245 0-0.31928-0.11403-0.11403-0.13684-0.11403-0.31928v-3.0104q0-0.43331 0.43331-0.43331h11.335q0.18245 0 0.29648 0.13683 0.13684 0.11403 0.13684 0.29648v3.0104z"/>
   <path style="" d="m42.769 946.67q0.06842 0.15964 0.11403 0.3877 0.06842 0.22806 0.06842 0.41051v9.8066q0 0.18245-0.06842 0.41051-0.04561 0.22806-0.11403 0.3877l-2.0982 2.0982q-0.15964 0.0912-0.41051 0.13684-0.22806 0.0456-0.41051 0.0456h-7.2295q-0.18245 0-0.41051-0.0456t-0.3877-0.13684l-2.0982-2.0982q-0.09122-0.15964-0.13684-0.3877-0.04561-0.22806-0.04561-0.41051v-9.8066q0-0.18245 0.04561-0.41051t0.13684-0.3877l2.0982-2.0982q0.15964-0.0684 0.3877-0.11403 0.22806-0.0684 0.41051-0.0684h7.2296q0.18245 0 0.41051 0.0684 0.25087 0.0456 0.41051 0.11403l2.0982 2.0982zm-3.8542 1.5964h-5.3594v8.233h5.3594v-8.233z"/>
   <path style="" d="m59.718 946.65q0.06842 0.15965 0.11403 0.41051 0.06842 0.22806 0.06842 0.41051v12.452q0 0.18245-0.13684 0.29648-0.11403 0.11403-0.29648 0.11403h-3.17q-0.18245 0-0.29648-0.11403t-0.11403-0.29648v-4.1051q0-0.18244-0.13684-0.29647-0.11403-0.11403-0.29648-0.11403h-4.5156q-0.18245 0-0.31928 0.11403-0.11403 0.11403-0.11403 0.29647v4.1051q0 0.18245-0.11403 0.29648t-0.29648 0.11403h-3.17q-0.18245 0-0.31928-0.11403-0.11403-0.11403-0.11403-0.29648v-12.52q0.02281-0.18245 0.06842-0.3877t0.11403-0.3649l2.0982-2.0982q0.15964-0.0684 0.3877-0.11403 0.22806-0.0684 0.41051-0.0684h7.2295q0.18245 0 0.41051 0.0684 0.25087 0.0456 0.41051 0.11403l2.0982 2.0982zm-3.8314 1.3h-5.3822v4.0367h5.3822v-4.0367z"/>
   <path style="" d="m75.435 953.01q0.06842 0.18245 0.11403 0.41051 0.06842 0.22806 0.06842 0.41051v3.4437q0 0.18245-0.06842 0.41051-0.04561 0.22806-0.11403 0.3877l-2.0982 2.0982q-0.15964 0.0912-0.41051 0.13684-0.22806 0.0456-0.41051 0.0456h-8.6663q-0.43332 0-0.43332-0.43331v-2.7595q0-0.18245 0.11403-0.29648 0.13684-0.13684 0.31928-0.13684h7.7541q0.18245 0 0.29648-0.11403 0.13684-0.11403 0.13684-0.29647v-1.8929q0-0.18245-0.13684-0.29648-0.11403-0.13684-0.29648-0.13684h-5.1085q-0.18245 0-0.41051-0.0456t-0.3877-0.11403l-2.0982-2.0982q-0.09122-0.18245-0.13684-0.41051-0.04561-0.22806-0.04561-0.41051v-3.4437q0-0.18245 0.04561-0.41051t0.13684-0.3877l2.0982-2.0982q0.15964-0.0684 0.3877-0.11403 0.22806-0.0684 0.41051-0.0684h8.1874q0.18245 0 0.29648 0.13683 0.13684 0.11403 0.13684 0.29648v2.8051q0 0.18245-0.13684 0.31929-0.11403 0.11403-0.29648 0.11403h-7.2751q-0.18245 0-0.31928 0.11403-0.11403 0.11403-0.11403 0.29648v1.8473q0 0.18245 0.11403 0.31929 0.13684 0.11403 0.31928 0.11403h5.1085q0.18245 0 0.41051 0.0456 0.25087 0.0456 0.41051 0.11403l2.0982 2.0982z"/>
   <path style="" d="m90.363 947.84q0 0.18244-0.13684 0.31928-0.11403 0.11403-0.29648 0.11403h-3.2385q-0.18245 0-0.31928 0.11403-0.11403 0.11403-0.11403 0.29648v11.243q0 0.18245-0.11403 0.31928-0.11403 0.11403-0.29648 0.11403h-3.17q-0.18245 0-0.31928-0.11403-0.11403-0.13683-0.11403-0.31928v-11.243q0-0.18245-0.11403-0.29648t-0.29648-0.11403h-3.2385q-0.18245 0-0.31928-0.11403-0.11403-0.13684-0.11403-0.31928v-3.0104q0-0.43331 0.43332-0.43331h11.335q0.18245 0 0.29648 0.13683 0.13684 0.11403 0.13684 0.29648v3.0104z"/>
   <path style="" d="m97.165 948.11q-0.11403 0-0.11403 0.11403v2.4859q0 0.0912 0.11403 0.0912h6.4997q0.18245 0 0.29648 0.13684 0.13684 0.11403 0.13684 0.29647v2.2806q0 0.43331-0.43332 0.43331h-6.4997q-0.11403 0-0.11403 0.11403v2.463q0 0.11403 0.11403 0.11403h7.6401q0.18244 0 0.29647 0.13684 0.13684 0.11403 0.13684 0.29647v2.8508q0 0.18245-0.13684 0.31928-0.11403 0.11403-0.29647 0.11403h-8.6891q-0.18245 0-0.41051-0.0456t-0.3877-0.13684l-2.0982-2.0982q-0.09122-0.15964-0.13684-0.3877-0.04561-0.22806-0.04561-0.41051v-9.8066q0-0.18245 0.04561-0.41051t0.13684-0.3877l2.0982-2.0982q0.15964-0.0684 0.3877-0.11403 0.22806-0.0684 0.41051-0.0684h8.6891q0.18244 0 0.29647 0.13683 0.13684 0.11403 0.13684 0.29648v2.8736q0 0.18245-0.13684 0.29648-0.11403 0.11403-0.29647 0.11403h-7.6401z"/>
   <path style="" d="m122.56 959.99q0.0912 0.15964 0.0228 0.27367-0.0684 0.0912-0.25086 0.0912h-3.6262q-0.18245 0-0.3649-0.0912-0.18244-0.11403-0.27367-0.27367l-2.5543-4.3332q-0.0456-0.0912-0.15964-0.0912h-2.5771q-0.11403 0-0.11403 0.11403v4.2419q0 0.43331-0.43332 0.43331h-3.1472q-0.43331 0-0.43331-0.43331v-15.098q0-0.18245 0.11403-0.29648 0.13683-0.13683 0.31928-0.13683h9.875q0.18245 0 0.41051 0.0684 0.25086 0.0456 0.4105 0.11403l2.0982 2.0982q0.0684 0.15964 0.11403 0.3877 0.0684 0.22806 0.0684 0.41051v4.9717q0 0.13684-0.0684 0.34209-0.0684 0.18245-0.15964 0.34209l-2.0982 2.1438 2.828 4.7208zm-4.5384-11.882h-5.5191v3.877h5.519v-3.8771z"/>
   <path style="" d="m137.31 947.84q0 0.18244-0.13684 0.31928-0.11403 0.11403-0.29648 0.11403h-3.2384q-0.18245 0-0.31928 0.11403-0.11403 0.11403-0.11403 0.29648v11.243q0 0.18245-0.11403 0.31928-0.11403 0.11403-0.29648 0.11403h-3.17q-0.18245 0-0.31928-0.11403-0.11403-0.13683-0.11403-0.31928v-11.243q0-0.18245-0.11403-0.29648t-0.29648-0.11403h-3.2385q-0.18245 0-0.31928-0.11403-0.11403-0.13684-0.11403-0.31928v-3.0104q0-0.43331 0.43331-0.43331h11.334q0.18245 0 0.29648 0.13683 0.13684 0.11403 0.13684 0.29648v3.0104z"/>
   <path style="" d="m144.11 948.11q-0.11403 0-0.11403 0.11403v2.4859q0 0.0912 0.11403 0.0912h6.4997q0.18245 0 0.29648 0.13684 0.13683 0.11403 0.13683 0.29647v2.2806q0 0.43331-0.43331 0.43331h-6.4997q-0.11403 0-0.11403 0.11403v2.463q0 0.11403 0.11403 0.11403h7.64q0.18245 0 0.29648 0.13684 0.13684 0.11403 0.13684 0.29647v2.8508q0 0.18245-0.13684 0.31928-0.11403 0.11403-0.29648 0.11403h-8.6891q-0.18245 0-0.41051-0.0456t-0.3877-0.13684l-2.0982-2.0982q-0.0912-0.15964-0.13683-0.3877-0.0456-0.22806-0.0456-0.41051v-9.8066q0-0.18245 0.0456-0.41051t0.13683-0.3877l2.0982-2.0982q0.15964-0.0684 0.3877-0.11403 0.22806-0.0684 0.41051-0.0684h8.6891q0.18245 0 0.29648 0.13683 0.13684 0.11403 0.13684 0.29648v2.8736q0 0.18245-0.13684 0.29648-0.11403 0.11403-0.29648 0.11403h-7.6401z"/>
   <path style="" d="m160.2 948.27q-0.18245 0-0.31929 0.11403-0.11403 0.11403-0.11403 0.29648v7.3892q0 0.18245 0.11403 0.31928 0.13684 0.11403 0.31929 0.11403h7.3207q0.18245 0 0.29648 0.11403 0.13683 0.11403 0.13683 0.29648v3.0104q0 0.18245-0.13683 0.31928-0.11403 0.11403-0.29648 0.11403h-8.6891q-0.18244 0-0.4105-0.0456t-0.38771-0.13684l-2.0982-2.0982q-0.0912-0.15964-0.13684-0.3877-0.0456-0.22806-0.0456-0.41051v-9.8065q0-0.18245 0.0456-0.41051t0.13684-0.3877l2.0982-2.0982q0.15965-0.0684 0.31929-0.11403 0.18245-0.0684 0.27367-0.0684h8.8943q0.18245 0 0.29648 0.13683 0.13683 0.11403 0.13683 0.29648v3.0104q0 0.18244-0.13683 0.31928-0.11403 0.11403-0.29648 0.11403h-7.3207z"/>
   <path style="" d="m184.57 944.39q0.18245 0 0.29648 0.13683 0.13 0.11 0.13 0.29v15.098q0 0.18245-0.13683 0.31928-0.11403 0.11403-0.29648 0.11403h-3.17q-0.18245 0-0.31928-0.11403-0.11403-0.13683-0.11403-0.31928v-5.2682q0-0.18245-0.11403-0.29648t-0.29648-0.11403h-4.5156q-0.18245 0-0.31929 0.11403-0.11403 0.11403-0.11403 0.29648v5.2682q0 0.43331-0.43331 0.43331h-3.1472q-0.43332 0-0.43332-0.43331v-15.098q0-0.43331 0.43332-0.43331h3.1472q0.43331 0 0.43331 0.43331v5.1086q0 0.43331 0.43332 0.43331h4.5156q0.18245 0 0.29648-0.11403 0.11403-0.13683 0.11403-0.31928v-5.1086q0-0.18245 0.11403-0.29648 0.13683-0.13683 0.31928-0.13683h3.17z"/>
  </g>
 </g>
</svg>
